PathFileType	3	(X/Y/Z)	squats_2__fused_aligned.trc
DataRate	CameraRate	NumFrames	NumMarkers	Units	OrigDataRate	OrigDataStartFrame	OrigNumFrames
100.0	100.0	16	19	mm	100.0	146	1520
Frame#	Time	pelvis			neck			head			hip_left			hip_right			knee_left			knee_right			ankle_left			ankle_right			heel_left			heel_right			toe_left			toe_right			shoulder_left			shoulder_right			elbow_left			elbow_right			wrist_left			wrist_right			
		X1	Y1	Z1	X2	Y2	Z2	X3	Y3	Z3	X4	Y4	Z4	X5	Y5	Z5	X6	Y6	Z6	X7	Y7	Z7	X8	Y8	Z8	X9	Y9	Z9	X10	Y10	Z10	X11	Y11	Z11	X12	Y12	Z12	X13	Y13	Z13	X14	Y14	Z14	X15	Y15	Z15	X16	Y16	Z16	X17	Y17	Z17	X18	Y18	Z18	X19	Y19	Z19	
146	1.45000	74.644364	956.821053	-42.341601	91.338601	1523.468143	-77.270781	89.942685	1665.372737	-185.148059	-0.173587	957.912703	-41.111550	149.462162	955.729448	-43.571784	-50.425830	536.868957	-9.508143	180.789338	531.851060	-34.085154	-80.379273	153.310094	107.827933	195.564469	144.216489	71.074660	-77.803489	110.476552	147.091476	192.045603	101.673663	111.483072	-102.916391	79.523932	-68.377329	216.293467	64.372781	-104.866985	-84.201550	1480.596803	-43.166488	265.947002	1458.858790	-44.759304	-239.439768	1238.582896	-129.733044	374.348341	1207.003146	-139.223336	-319.756444	1296.220570	-363.606906	359.204874	1371.716303	-322.364130
147	1.46000	73.229351	956.859915	-41.226011	89.954545	1523.668496	-75.936031	88.533047	1665.507341	-183.836657	-1.633243	957.924506	-40.024086	148.091803	955.795365	-42.428066	-51.621952	536.784156	-8.846883	179.855099	531.905960	-33.572384	-81.389320	153.178436	108.438917	194.985652	144.217766	71.366071	-78.795895	110.327682	147.703914	191.499628	101.677187	111.787095	-103.914686	79.493771	-67.843499	215.726295	64.283534	-104.591788	-86.021316	1480.978496	-42.450682	264.906585	1458.942189	-44.249495	-238.900937	1238.262440	-130.145746	369.298031	1205.989878	-139.711168	-312.617641	1297.709640	-364.551298	348.565884	1368.579136	-323.327056
148	1.47000	71.814338	956.898777	-40.110421	88.570489	1523.868849	-74.601281	87.123408	1665.641945	-182.525254	-3.092898	957.936309	-38.936622	146.721443	955.861282	-41.284347	-52.818074	536.699356	-8.185623	178.920860	531.960860	-33.059613	-82.399367	153.046778	109.049902	194.406835	144.219043	71.657482	-79.788302	110.178811	148.316352	190.953652	101.680712	112.091117	-104.912981	79.463610	-67.309668	215.159123	64.194287	-104.316591	-87.841083	1481.360189	-41.734876	263.866169	1459.025588	-43.739686	-238.362106	1237.941985	-130.558447	364.247722	1204.976611	-140.199000	-305.478837	1299.198709	-365.495691	337.926893	1365.441969	-324.289982
149	1.48000	70.399325	956.937639	-38.994830	87.186433	1524.069201	-73.266532	85.713770	1665.776549	-181.213852	-4.552553	957.948112	-37.849159	145.351084	955.927199	-40.140628	-54.014197	536.614555	-7.524364	177.986622	532.015760	-32.546843	-83.409414	152.915119	109.660886	193.828018	144.220320	71.948893	-80.780708	110.029941	148.928790	190.407677	101.684236	112.395140	-105.911276	79.433448	-66.775837	214.591950	64.105039	-104.041393	-89.660849	1481.741882	-41.019070	262.825753	1459.108987	-43.229877	-237.823274	1237.621529	-130.971149	359.197413	1203.963343	-140.686833	-298.340033	1300.687779	-366.440083	327.287903	1362.304802	-325.252908
150	1.49000	68.984312	956.976501	-37.879240	85.802376	1524.269554	-71.931782	84.304132	1665.911152	-179.902450	-6.012208	957.959915	-36.761695	143.980725	955.993116	-38.996909	-55.210319	536.529755	-6.863104	177.052383	532.070660	-32.034072	-84.419461	152.783461	110.271870	193.249201	144.221598	72.240304	-81.773114	109.881070	149.541229	189.861702	101.687761	112.699163	-106.909571	79.403287	-66.242007	214.024778	64.015792	-103.766196	-91.480616	1482.123576	-40.303264	261.785336	1459.192386	-42.720068	-237.284443	1237.301073	-131.383851	354.147103	1202.950075	-141.174665	-291.201229	1302.176849	-367.384476	316.648913	1359.167635	-326.215834
151	1.50000	67.569299	957.015363	-36.763650	84.418320	1524.469907	-70.597032	82.894493	1666.045756	-178.591047	-7.471864	957.971718	-35.674231	142.610365	956.059033	-37.853190	-56.406441	536.444954	-6.201844	176.118144	532.125560	-31.521302	-85.429508	152.651802	110.882855	192.670384	144.222875	72.531716	-82.765520	109.732199	150.153667	189.315727	101.691286	113.003185	-107.907866	79.373126	-65.708176	213.457605	63.926544	-103.490999	-93.300382	1482.505269	-39.587458	260.744920	1459.275786	-42.210258	-236.745612	1236.980618	-131.796552	349.096794	1201.936808	-141.662497	-284.062426	1303.665918	-368.328868	306.009922	1356.030468	-327.178760
152	1.51000	66.154286	957.054225	-35.648060	83.034264	1524.670260	-69.262282	81.484855	1666.180360	-177.279645	-8.931519	957.983521	-34.586768	141.240006	956.124951	-36.709472	-57.602564	536.360153	-5.540584	175.183905	532.180460	-31.008532	-86.439555	152.520144	111.493839	192.091567	144.224152	72.823127	-83.757926	109.583329	150.766105	188.769752	101.694810	113.307208	-108.906161	79.342964	-65.174345	212.890433	63.837297	-103.215802	-95.120149	1482.886962	-38.871653	259.704503	1459.359185	-41.700449	-236.206781	1236.660162	-132.209254	344.046485	1200.923540	-142.150329	-276.923622	1305.154988	-369.273260	295.370932	1352.893301	-328.141686
153	1.52000	64.739273	957.093087	-34.532469	81.650208	1524.870612	-67.927532	80.075216	1666.314964	-175.968243	-10.391174	957.995324	-33.499304	139.869646	956.190868	-35.565753	-58.798686	536.275353	-4.879324	174.249666	532.235360	-30.495761	-87.449602	152.388485	112.104824	191.512750	144.225430	73.114538	-84.750332	109.434458	151.378543	188.223777	101.698335	113.611230	-109.904457	79.312803	-64.640515	212.323260	63.748050	-102.940605	-96.939915	1483.268655	-38.155847	258.664087	1459.442584	-41.190640	-235.667950	1236.339706	-132.621956	338.996176	1199.910272	-142.638162	-269.784818	1306.644057	-370.217653	284.731941	1349.756134	-329.104612
154	1.53000	63.324260	957.131949	-33.416879	80.266152	1525.070965	-66.592782	78.665578	1666.449568	-174.656840	-11.850829	958.007127	-32.411840	138.499287	956.256785	-34.422034	-59.994809	536.190552	-4.218064	173.315428	532.290260	-29.982991	-88.459649	152.256827	112.715808	190.933933	144.226707	73.405949	-85.742738	109.285587	151.990981	187.677802	101.701860	113.915253	-110.902752	79.282642	-64.106684	211.756088	63.658802	-102.665408	-98.759682	1483.650349	-37.440041	257.623670	1459.525983	-40.680831	-235.129119	1236.019251	-133.034657	333.945866	1198.897004	-143.125994	-262.646014	1308.133127	-371.162045	274.092951	1346.618967	-330.067538
155	1.54000	61.909247	957.170811	-32.301289	78.882095	1525.271318	-65.258032	77.255939	1666.584172	-173.345438	-13.310484	958.018930	-31.324376	137.128927	956.322702	-33.278315	-61.190931	536.105751	-3.556804	172.381189	532.345160	-29.470220	-89.469696	152.125168	113.326792	190.355116	144.227984	73.697360	-86.735144	109.136717	152.603419	187.131827	101.705384	114.219276	-111.901047	79.252480	-63.572853	211.188916	63.569555	-102.390210	-100.579448	1484.032042	-36.724235	256.583254	1459.609382	-40.171022	-234.590287	1235.698795	-133.447359	328.895557	1197.883737	-143.613826	-255.507211	1309.622197	-372.106438	263.453961	1343.481801	-331.030464
156	1.55000	60.494234	957.209673	-31.185699	77.498039	1525.471671	-63.923283	75.846301	1666.718776	-172.034035	-14.770140	958.030733	-30.236913	135.758568	956.388619	-32.134596	-62.387053	536.020951	-2.895544	171.446950	532.400060	-28.957450	-90.479743	151.993510	113.937777	189.776299	144.229262	73.988771	-87.727550	108.987846	153.215858	186.585852	101.708909	114.523298	-112.899342	79.222319	-63.039022	210.621743	63.480308	-102.115013	-102.399215	1484.413735	-36.008429	255.542838	1459.692781	-39.661213	-234.051456	1235.378339	-133.860061	323.845248	1196.870469	-144.101658	-248.368407	1311.111266	-373.050830	252.814970	1340.344634	-331.993390
157	1.56000	58.982391	957.241202	-30.322715	76.090338	1525.486988	-62.970766	74.167548	1666.613884	-171.157688	-16.313222	958.057418	-29.333180	134.277968	956.424993	-31.312351	-63.669642	535.996535	-2.391739	170.261970	532.459489	-28.596454	-91.571811	151.916884	114.285122	188.911863	144.250537	74.122959	-88.807383	108.890915	153.556652	185.764462	101.723115	114.658755	-113.888718	79.236056	-62.767570	209.716560	63.458288	-102.000867	-104.165343	1484.683716	-35.509877	254.461871	1459.636623	-39.601934	-233.271949	1234.793803	-134.227861	319.610793	1195.859146	-144.696491	-240.437619	1311.216347	-373.269467	243.305443	1336.744002	-332.578000
158	1.57000	57.470548	957.272732	-29.459731	74.682637	1525.502304	-62.018249	72.488795	1666.508992	-170.281341	-17.856305	958.084103	-28.429447	132.797368	956.461366	-30.490106	-64.952230	535.972119	-1.887934	169.076989	532.518919	-28.235458	-92.663878	151.840258	114.632468	188.047428	144.271813	74.257146	-89.887215	108.793985	153.897446	184.943072	101.737321	114.794213	-114.878095	79.249793	-62.496118	208.811378	63.436268	-101.886720	-105.931471	1484.953697	-35.011324	253.380904	1459.580465	-39.542655	-232.492442	1234.209266	-134.595661	315.376338	1194.847823	-145.291323	-232.506831	1311.321428	-373.488103	233.795915	1333.143370	-333.162610
159	1.58000	55.958705	957.304261	-28.596748	73.274936	1525.517621	-61.065732	70.810042	1666.404100	-169.404993	-19.399388	958.110787	-27.525715	131.316769	956.497740	-29.667860	-66.234818	535.947703	-1.384129	167.892009	532.578348	-27.874462	-93.755945	151.763633	114.979814	187.182992	144.293089	74.391334	-90.967048	108.697054	154.238240	184.121682	101.751527	114.929670	-115.867471	79.263530	-62.224666	207.906195	63.414248	-101.772574	-107.697599	1485.223678	-34.512771	252.299938	1459.524306	-39.483376	-231.712934	1233.624729	-134.963461	311.141882	1193.836500	-145.886155	-224.576043	1311.426509	-373.706740	224.286388	1329.542738	-333.747219
160	1.59000	54.446862	957.335791	-27.733764	71.867234	1525.532938	-60.113215	69.131289	1666.299207	-168.528646	-20.942471	958.137472	-26.621982	129.836169	956.534113	-28.845615	-67.517407	535.923288	-0.880324	166.707028	532.637777	-27.513466	-94.848013	151.687007	115.327160	186.318557	144.314365	74.525521	-92.046880	108.600123	154.579034	183.300293	101.765734	115.065127	-116.856848	79.277267	-61.953214	207.001012	63.392228	-101.658427	-109.463727	1485.493660	-34.014219	251.218971	1459.468148	-39.424097	-230.933427	1233.040193	-135.331261	306.907427	1192.825177	-146.480987	-216.645255	1311.531590	-373.925377	214.776860	1325.942106	-334.331829
161	1.60000	52.935018	957.367320	-26.870781	70.459533	1525.548255	-59.160699	67.452536	1666.194315	-167.652299	-22.485554	958.164157	-25.718249	128.355569	956.570487	-28.023370	-68.799995	535.898872	-0.376518	165.522048	532.697207	-27.152470	-95.940080	151.610381	115.674506	185.454122	144.335641	74.659709	-93.126713	108.503192	154.919828	182.478903	101.779940	115.200584	-117.846224	79.291004	-61.681761	206.095829	63.370208	-101.544281	-111.229855	1485.763641	-33.515666	250.138004	1459.411990	-39.364818	-230.153920	1232.455656	-135.699061	302.672972	1191.813854	-147.075820	-208.714467	1311.636671	-374.144013	205.267333	1322.341473	-334.916438
